<?xml version="1.0" encoding="utf-8" standalone="no"?>
<!DOCTYPE svg PUBLIC "-//W3C//DTD SVG 1.1//EN"
  "http://www.w3.org/Graphics/SVG/1.1/DTD/svg11.dtd">
<svg xmlns:xlink="http://www.w3.org/1999/xlink" width="565.785pt" height="398.963125pt" viewBox="0 0 565.785 398.963125" xmlns="http://www.w3.org/2000/svg" version="1.1">
 <metadata>
  <rdf:RDF xmlns:dc="http://purl.org/dc/elements/1.1/" xmlns:cc="http://creativecommons.org/ns#" xmlns:rdf="http://www.w3.org/1999/02/22-rdf-syntax-ns#">
   <cc:Work>
    <dc:type rdf:resource="http://purl.org/dc/dcmitype/StillImage"/>
    <dc:date>2022-04-07T17:19:10.949054</dc:date>
    <dc:format>image/svg+xml</dc:format>
    <dc:creator>
     <cc:Agent>
      <dc:title>Matplotlib v3.5.1, https://matplotlib.org/</dc:title>
     </cc:Agent>
    </dc:creator>
   </cc:Work>
  </rdf:RDF>
 </metadata>
 <defs>
  <style type="text/css">*{stroke-linejoin: round; stroke-linecap: butt}</style>
 </defs>
 <g id="figure_1">
  <g id="axes_1">
   <g id="patch_1">
    <path d="M 50.785 355.6 
L 552.985 355.6 
L 552.985 78.4 
L 50.785 78.4 
L 50.785 355.6 
z
" style="fill: none"/>
   </g>
   <g id="line2d_1">
    <path d="M -1 257.490246 
L 50.785 238.434356 
L 176.335 192.234356 
L 301.885 146.034356 
L 427.435 99.834356 
L 552.985 53.634356 
L 566.785 48.55622 
" clip-path="url(#p62f467a784)" style="fill: none; stroke: #808080; stroke-width: 2; stroke-linecap: square"/>
   </g>
   <g id="line2d_2">
    <path d="M -1 257.490246 
L 50.785 238.434356 
L 176.335 192.234356 
L 301.885 146.034356 
L 427.435 99.834356 
L 552.985 53.634356 
L 566.785 48.55622 
" clip-path="url(#p62f467a784)" style="fill: none; stroke: #808080; stroke-width: 2; stroke-linecap: square"/>
   </g>
   <g id="line2d_3">
    <path d="M -1 257.490246 
L 50.785 238.434356 
L 176.335 192.234356 
L 301.885 146.034356 
L 427.435 99.834356 
L 552.985 53.634356 
L 552.985 53.634356 
L 566.785 53.634356 
" clip-path="url(#p62f467a784)" style="fill: none; stroke: #808080; stroke-width: 2; stroke-linecap: square"/>
   </g>
   <g id="line2d_4">
    <path d="M -1 257.490246 
L 50.785 238.434356 
L 176.335 192.234356 
L 301.885 146.034356 
L 301.885 146.034356 
L 427.435 146.034356 
L 552.985 146.034356 
L 566.785 146.034356 
" clip-path="url(#p62f467a784)" style="fill: none; stroke: #808080; stroke-width: 2; stroke-linecap: square"/>
   </g>
   <g id="matplotlib.axis_1">
    <g id="xtick_1">
     <g id="line2d_5">
      <defs>
       <path id="mbc65b91cc2" d="M 0 0 
L 0 3.5 
" style="stroke: #000000; stroke-width: 0.8"/>
      </defs>
      <g>
       <use xlink:href="#mbc65b91cc2" x="50.785" y="355.6" style="stroke: #000000; stroke-width: 0.8"/>
      </g>
     </g>
     <g id="text_1">
      <!-- $\mathdefault{2^{-4}}$ -->
      <g transform="translate(42.235 370.198438)scale(0.1 -0.1)">
       <defs>
        <path id="DejaVuSans-32" d="M 1228 531 
L 3431 531 
L 3431 0 
L 469 0 
L 469 531 
Q 828 903 1448 1529 
Q 2069 2156 2228 2338 
Q 2531 2678 2651 2914 
Q 2772 3150 2772 3378 
Q 2772 3750 2511 3984 
Q 2250 4219 1831 4219 
Q 1534 4219 1204 4116 
Q 875 4013 500 3803 
L 500 4441 
Q 881 4594 1212 4672 
Q 1544 4750 1819 4750 
Q 2544 4750 2975 4387 
Q 3406 4025 3406 3419 
Q 3406 3131 3298 2873 
Q 3191 2616 2906 2266 
Q 2828 2175 2409 1742 
Q 1991 1309 1228 531 
z
" transform="scale(0.015625)"/>
        <path id="DejaVuSans-2212" d="M 678 2272 
L 4684 2272 
L 4684 1741 
L 678 1741 
L 678 2272 
z
" transform="scale(0.015625)"/>
        <path id="DejaVuSans-34" d="M 2419 4116 
L 825 1625 
L 2419 1625 
L 2419 4116 
z
M 2253 4666 
L 3047 4666 
L 3047 1625 
L 3713 1625 
L 3713 1100 
L 3047 1100 
L 3047 0 
L 2419 0 
L 2419 1100 
L 313 1100 
L 313 1709 
L 2253 4666 
z
" transform="scale(0.015625)"/>
       </defs>
       <use xlink:href="#DejaVuSans-32" transform="translate(0 0.684375)"/>
       <use xlink:href="#DejaVuSans-2212" transform="translate(64.580078 38.965625)scale(0.7)"/>
       <use xlink:href="#DejaVuSans-34" transform="translate(123.232422 38.965625)scale(0.7)"/>
      </g>
     </g>
    </g>
    <g id="xtick_2">
     <g id="line2d_6">
      <g>
       <use xlink:href="#mbc65b91cc2" x="176.335" y="355.6" style="stroke: #000000; stroke-width: 0.8"/>
      </g>
     </g>
     <g id="text_2">
      <!-- $\mathdefault{2^{-3}}$ -->
      <g transform="translate(167.785 370.198438)scale(0.1 -0.1)">
       <defs>
        <path id="DejaVuSans-33" d="M 2597 2516 
Q 3050 2419 3304 2112 
Q 3559 1806 3559 1356 
Q 3559 666 3084 287 
Q 2609 -91 1734 -91 
Q 1441 -91 1130 -33 
Q 819 25 488 141 
L 488 750 
Q 750 597 1062 519 
Q 1375 441 1716 441 
Q 2309 441 2620 675 
Q 2931 909 2931 1356 
Q 2931 1769 2642 2001 
Q 2353 2234 1838 2234 
L 1294 2234 
L 1294 2753 
L 1863 2753 
Q 2328 2753 2575 2939 
Q 2822 3125 2822 3475 
Q 2822 3834 2567 4026 
Q 2313 4219 1838 4219 
Q 1578 4219 1281 4162 
Q 984 4106 628 3988 
L 628 4550 
Q 988 4650 1302 4700 
Q 1616 4750 1894 4750 
Q 2613 4750 3031 4423 
Q 3450 4097 3450 3541 
Q 3450 3153 3228 2886 
Q 3006 2619 2597 2516 
z
" transform="scale(0.015625)"/>
       </defs>
       <use xlink:href="#DejaVuSans-32" transform="translate(0 0.765625)"/>
       <use xlink:href="#DejaVuSans-2212" transform="translate(64.580078 39.046875)scale(0.7)"/>
       <use xlink:href="#DejaVuSans-33" transform="translate(123.232422 39.046875)scale(0.7)"/>
      </g>
     </g>
    </g>
    <g id="xtick_3">
     <g id="line2d_7">
      <g>
       <use xlink:href="#mbc65b91cc2" x="301.885" y="355.6" style="stroke: #000000; stroke-width: 0.8"/>
      </g>
     </g>
     <g id="text_3">
      <!-- $\mathdefault{2^{-2}}$ -->
      <g transform="translate(293.335 370.198438)scale(0.1 -0.1)">
       <use xlink:href="#DejaVuSans-32" transform="translate(0 0.765625)"/>
       <use xlink:href="#DejaVuSans-2212" transform="translate(64.580078 39.046875)scale(0.7)"/>
       <use xlink:href="#DejaVuSans-32" transform="translate(123.232422 39.046875)scale(0.7)"/>
      </g>
     </g>
    </g>
    <g id="xtick_4">
     <g id="line2d_8">
      <g>
       <use xlink:href="#mbc65b91cc2" x="427.435" y="355.6" style="stroke: #000000; stroke-width: 0.8"/>
      </g>
     </g>
     <g id="text_4">
      <!-- $\mathdefault{2^{-1}}$ -->
      <g transform="translate(418.885 370.198438)scale(0.1 -0.1)">
       <defs>
        <path id="DejaVuSans-31" d="M 794 531 
L 1825 531 
L 1825 4091 
L 703 3866 
L 703 4441 
L 1819 4666 
L 2450 4666 
L 2450 531 
L 3481 531 
L 3481 0 
L 794 0 
L 794 531 
z
" transform="scale(0.015625)"/>
       </defs>
       <use xlink:href="#DejaVuSans-32" transform="translate(0 0.684375)"/>
       <use xlink:href="#DejaVuSans-2212" transform="translate(64.580078 38.965625)scale(0.7)"/>
       <use xlink:href="#DejaVuSans-31" transform="translate(123.232422 38.965625)scale(0.7)"/>
      </g>
     </g>
    </g>
    <g id="xtick_5">
     <g id="line2d_9">
      <g>
       <use xlink:href="#mbc65b91cc2" x="552.985" y="355.6" style="stroke: #000000; stroke-width: 0.8"/>
      </g>
     </g>
     <g id="text_5">
      <!-- $\mathdefault{2^{0}}$ -->
      <g transform="translate(547.385 370.198438)scale(0.1 -0.1)">
       <defs>
        <path id="DejaVuSans-30" d="M 2034 4250 
Q 1547 4250 1301 3770 
Q 1056 3291 1056 2328 
Q 1056 1369 1301 889 
Q 1547 409 2034 409 
Q 2525 409 2770 889 
Q 3016 1369 3016 2328 
Q 3016 3291 2770 3770 
Q 2525 4250 2034 4250 
z
M 2034 4750 
Q 2819 4750 3233 4129 
Q 3647 3509 3647 2328 
Q 3647 1150 3233 529 
Q 2819 -91 2034 -91 
Q 1250 -91 836 529 
Q 422 1150 422 2328 
Q 422 3509 836 4129 
Q 1250 4750 2034 4750 
z
" transform="scale(0.015625)"/>
       </defs>
       <use xlink:href="#DejaVuSans-32" transform="translate(0 0.765625)"/>
       <use xlink:href="#DejaVuSans-30" transform="translate(64.580078 39.046875)scale(0.7)"/>
      </g>
     </g>
    </g>
    <g id="text_6">
     <!-- Arithmetic intensity [FLOPs/byte] -->
     <g transform="translate(169.7275 388.435625)scale(0.16 -0.16)">
      <defs>
       <path id="DejaVuSans-41" d="M 2188 4044 
L 1331 1722 
L 3047 1722 
L 2188 4044 
z
M 1831 4666 
L 2547 4666 
L 4325 0 
L 3669 0 
L 3244 1197 
L 1141 1197 
L 716 0 
L 50 0 
L 1831 4666 
z
" transform="scale(0.015625)"/>
       <path id="DejaVuSans-72" d="M 2631 2963 
Q 2534 3019 2420 3045 
Q 2306 3072 2169 3072 
Q 1681 3072 1420 2755 
Q 1159 2438 1159 1844 
L 1159 0 
L 581 0 
L 581 3500 
L 1159 3500 
L 1159 2956 
Q 1341 3275 1631 3429 
Q 1922 3584 2338 3584 
Q 2397 3584 2469 3576 
Q 2541 3569 2628 3553 
L 2631 2963 
z
" transform="scale(0.015625)"/>
       <path id="DejaVuSans-69" d="M 603 3500 
L 1178 3500 
L 1178 0 
L 603 0 
L 603 3500 
z
M 603 4863 
L 1178 4863 
L 1178 4134 
L 603 4134 
L 603 4863 
z
" transform="scale(0.015625)"/>
       <path id="DejaVuSans-74" d="M 1172 4494 
L 1172 3500 
L 2356 3500 
L 2356 3053 
L 1172 3053 
L 1172 1153 
Q 1172 725 1289 603 
Q 1406 481 1766 481 
L 2356 481 
L 2356 0 
L 1766 0 
Q 1100 0 847 248 
Q 594 497 594 1153 
L 594 3053 
L 172 3053 
L 172 3500 
L 594 3500 
L 594 4494 
L 1172 4494 
z
" transform="scale(0.015625)"/>
       <path id="DejaVuSans-68" d="M 3513 2113 
L 3513 0 
L 2938 0 
L 2938 2094 
Q 2938 2591 2744 2837 
Q 2550 3084 2163 3084 
Q 1697 3084 1428 2787 
Q 1159 2491 1159 1978 
L 1159 0 
L 581 0 
L 581 4863 
L 1159 4863 
L 1159 2956 
Q 1366 3272 1645 3428 
Q 1925 3584 2291 3584 
Q 2894 3584 3203 3211 
Q 3513 2838 3513 2113 
z
" transform="scale(0.015625)"/>
       <path id="DejaVuSans-6d" d="M 3328 2828 
Q 3544 3216 3844 3400 
Q 4144 3584 4550 3584 
Q 5097 3584 5394 3201 
Q 5691 2819 5691 2113 
L 5691 0 
L 5113 0 
L 5113 2094 
Q 5113 2597 4934 2840 
Q 4756 3084 4391 3084 
Q 3944 3084 3684 2787 
Q 3425 2491 3425 1978 
L 3425 0 
L 2847 0 
L 2847 2094 
Q 2847 2600 2669 2842 
Q 2491 3084 2119 3084 
Q 1678 3084 1418 2786 
Q 1159 2488 1159 1978 
L 1159 0 
L 581 0 
L 581 3500 
L 1159 3500 
L 1159 2956 
Q 1356 3278 1631 3431 
Q 1906 3584 2284 3584 
Q 2666 3584 2933 3390 
Q 3200 3197 3328 2828 
z
" transform="scale(0.015625)"/>
       <path id="DejaVuSans-65" d="M 3597 1894 
L 3597 1613 
L 953 1613 
Q 991 1019 1311 708 
Q 1631 397 2203 397 
Q 2534 397 2845 478 
Q 3156 559 3463 722 
L 3463 178 
Q 3153 47 2828 -22 
Q 2503 -91 2169 -91 
Q 1331 -91 842 396 
Q 353 884 353 1716 
Q 353 2575 817 3079 
Q 1281 3584 2069 3584 
Q 2775 3584 3186 3129 
Q 3597 2675 3597 1894 
z
M 3022 2063 
Q 3016 2534 2758 2815 
Q 2500 3097 2075 3097 
Q 1594 3097 1305 2825 
Q 1016 2553 972 2059 
L 3022 2063 
z
" transform="scale(0.015625)"/>
       <path id="DejaVuSans-63" d="M 3122 3366 
L 3122 2828 
Q 2878 2963 2633 3030 
Q 2388 3097 2138 3097 
Q 1578 3097 1268 2742 
Q 959 2388 959 1747 
Q 959 1106 1268 751 
Q 1578 397 2138 397 
Q 2388 397 2633 464 
Q 2878 531 3122 666 
L 3122 134 
Q 2881 22 2623 -34 
Q 2366 -91 2075 -91 
Q 1284 -91 818 406 
Q 353 903 353 1747 
Q 353 2603 823 3093 
Q 1294 3584 2113 3584 
Q 2378 3584 2631 3529 
Q 2884 3475 3122 3366 
z
" transform="scale(0.015625)"/>
       <path id="DejaVuSans-20" transform="scale(0.015625)"/>
       <path id="DejaVuSans-6e" d="M 3513 2113 
L 3513 0 
L 2938 0 
L 2938 2094 
Q 2938 2591 2744 2837 
Q 2550 3084 2163 3084 
Q 1697 3084 1428 2787 
Q 1159 2491 1159 1978 
L 1159 0 
L 581 0 
L 581 3500 
L 1159 3500 
L 1159 2956 
Q 1366 3272 1645 3428 
Q 1925 3584 2291 3584 
Q 2894 3584 3203 3211 
Q 3513 2838 3513 2113 
z
" transform="scale(0.015625)"/>
       <path id="DejaVuSans-73" d="M 2834 3397 
L 2834 2853 
Q 2591 2978 2328 3040 
Q 2066 3103 1784 3103 
Q 1356 3103 1142 2972 
Q 928 2841 928 2578 
Q 928 2378 1081 2264 
Q 1234 2150 1697 2047 
L 1894 2003 
Q 2506 1872 2764 1633 
Q 3022 1394 3022 966 
Q 3022 478 2636 193 
Q 2250 -91 1575 -91 
Q 1294 -91 989 -36 
Q 684 19 347 128 
L 347 722 
Q 666 556 975 473 
Q 1284 391 1588 391 
Q 1994 391 2212 530 
Q 2431 669 2431 922 
Q 2431 1156 2273 1281 
Q 2116 1406 1581 1522 
L 1381 1569 
Q 847 1681 609 1914 
Q 372 2147 372 2553 
Q 372 3047 722 3315 
Q 1072 3584 1716 3584 
Q 2034 3584 2315 3537 
Q 2597 3491 2834 3397 
z
" transform="scale(0.015625)"/>
       <path id="DejaVuSans-79" d="M 2059 -325 
Q 1816 -950 1584 -1140 
Q 1353 -1331 966 -1331 
L 506 -1331 
L 506 -850 
L 844 -850 
Q 1081 -850 1212 -737 
Q 1344 -625 1503 -206 
L 1606 56 
L 191 3500 
L 800 3500 
L 1894 763 
L 2988 3500 
L 3597 3500 
L 2059 -325 
z
" transform="scale(0.015625)"/>
       <path id="DejaVuSans-5b" d="M 550 4863 
L 1875 4863 
L 1875 4416 
L 1125 4416 
L 1125 -397 
L 1875 -397 
L 1875 -844 
L 550 -844 
L 550 4863 
z
" transform="scale(0.015625)"/>
       <path id="DejaVuSans-46" d="M 628 4666 
L 3309 4666 
L 3309 4134 
L 1259 4134 
L 1259 2759 
L 3109 2759 
L 3109 2228 
L 1259 2228 
L 1259 0 
L 628 0 
L 628 4666 
z
" transform="scale(0.015625)"/>
       <path id="DejaVuSans-4c" d="M 628 4666 
L 1259 4666 
L 1259 531 
L 3531 531 
L 3531 0 
L 628 0 
L 628 4666 
z
" transform="scale(0.015625)"/>
       <path id="DejaVuSans-4f" d="M 2522 4238 
Q 1834 4238 1429 3725 
Q 1025 3213 1025 2328 
Q 1025 1447 1429 934 
Q 1834 422 2522 422 
Q 3209 422 3611 934 
Q 4013 1447 4013 2328 
Q 4013 3213 3611 3725 
Q 3209 4238 2522 4238 
z
M 2522 4750 
Q 3503 4750 4090 4092 
Q 4678 3434 4678 2328 
Q 4678 1225 4090 567 
Q 3503 -91 2522 -91 
Q 1538 -91 948 565 
Q 359 1222 359 2328 
Q 359 3434 948 4092 
Q 1538 4750 2522 4750 
z
" transform="scale(0.015625)"/>
       <path id="DejaVuSans-50" d="M 1259 4147 
L 1259 2394 
L 2053 2394 
Q 2494 2394 2734 2622 
Q 2975 2850 2975 3272 
Q 2975 3691 2734 3919 
Q 2494 4147 2053 4147 
L 1259 4147 
z
M 628 4666 
L 2053 4666 
Q 2838 4666 3239 4311 
Q 3641 3956 3641 3272 
Q 3641 2581 3239 2228 
Q 2838 1875 2053 1875 
L 1259 1875 
L 1259 0 
L 628 0 
L 628 4666 
z
" transform="scale(0.015625)"/>
       <path id="DejaVuSans-2f" d="M 1625 4666 
L 2156 4666 
L 531 -594 
L 0 -594 
L 1625 4666 
z
" transform="scale(0.015625)"/>
       <path id="DejaVuSans-62" d="M 3116 1747 
Q 3116 2381 2855 2742 
Q 2594 3103 2138 3103 
Q 1681 3103 1420 2742 
Q 1159 2381 1159 1747 
Q 1159 1113 1420 752 
Q 1681 391 2138 391 
Q 2594 391 2855 752 
Q 3116 1113 3116 1747 
z
M 1159 2969 
Q 1341 3281 1617 3432 
Q 1894 3584 2278 3584 
Q 2916 3584 3314 3078 
Q 3713 2572 3713 1747 
Q 3713 922 3314 415 
Q 2916 -91 2278 -91 
Q 1894 -91 1617 61 
Q 1341 213 1159 525 
L 1159 0 
L 581 0 
L 581 4863 
L 1159 4863 
L 1159 2969 
z
" transform="scale(0.015625)"/>
       <path id="DejaVuSans-5d" d="M 1947 4863 
L 1947 -844 
L 622 -844 
L 622 -397 
L 1369 -397 
L 1369 4416 
L 622 4416 
L 622 4863 
L 1947 4863 
z
" transform="scale(0.015625)"/>
      </defs>
      <use xlink:href="#DejaVuSans-41"/>
      <use xlink:href="#DejaVuSans-72" x="68.408203"/>
      <use xlink:href="#DejaVuSans-69" x="109.521484"/>
      <use xlink:href="#DejaVuSans-74" x="137.304688"/>
      <use xlink:href="#DejaVuSans-68" x="176.513672"/>
      <use xlink:href="#DejaVuSans-6d" x="239.892578"/>
      <use xlink:href="#DejaVuSans-65" x="337.304688"/>
      <use xlink:href="#DejaVuSans-74" x="398.828125"/>
      <use xlink:href="#DejaVuSans-69" x="438.037109"/>
      <use xlink:href="#DejaVuSans-63" x="465.820312"/>
      <use xlink:href="#DejaVuSans-20" x="520.800781"/>
      <use xlink:href="#DejaVuSans-69" x="552.587891"/>
      <use xlink:href="#DejaVuSans-6e" x="580.371094"/>
      <use xlink:href="#DejaVuSans-74" x="643.75"/>
      <use xlink:href="#DejaVuSans-65" x="682.958984"/>
      <use xlink:href="#DejaVuSans-6e" x="744.482422"/>
      <use xlink:href="#DejaVuSans-73" x="807.861328"/>
      <use xlink:href="#DejaVuSans-69" x="859.960938"/>
      <use xlink:href="#DejaVuSans-74" x="887.744141"/>
      <use xlink:href="#DejaVuSans-79" x="926.953125"/>
      <use xlink:href="#DejaVuSans-20" x="986.132812"/>
      <use xlink:href="#DejaVuSans-5b" x="1017.919922"/>
      <use xlink:href="#DejaVuSans-46" x="1056.933594"/>
      <use xlink:href="#DejaVuSans-4c" x="1114.453125"/>
      <use xlink:href="#DejaVuSans-4f" x="1166.541016"/>
      <use xlink:href="#DejaVuSans-50" x="1245.251953"/>
      <use xlink:href="#DejaVuSans-73" x="1303.804688"/>
      <use xlink:href="#DejaVuSans-2f" x="1355.904297"/>
      <use xlink:href="#DejaVuSans-62" x="1389.595703"/>
      <use xlink:href="#DejaVuSans-79" x="1453.072266"/>
      <use xlink:href="#DejaVuSans-74" x="1512.251953"/>
      <use xlink:href="#DejaVuSans-65" x="1551.460938"/>
      <use xlink:href="#DejaVuSans-5d" x="1612.984375"/>
     </g>
    </g>
   </g>
   <g id="matplotlib.axis_2">
    <g id="ytick_1">
     <g id="line2d_10">
      <defs>
       <path id="m968bb0ef45" d="M 0 0 
L -3.5 0 
" style="stroke: #000000; stroke-width: 0.8"/>
      </defs>
      <g>
       <use xlink:href="#m968bb0ef45" x="50.785" y="355.6" style="stroke: #000000; stroke-width: 0.8"/>
      </g>
     </g>
     <g id="text_7">
      <!-- $\mathdefault{2^{-3}}$ -->
      <g transform="translate(26.685 359.399219)scale(0.1 -0.1)">
       <use xlink:href="#DejaVuSans-32" transform="translate(0 0.765625)"/>
       <use xlink:href="#DejaVuSans-2212" transform="translate(64.580078 39.046875)scale(0.7)"/>
       <use xlink:href="#DejaVuSans-33" transform="translate(123.232422 39.046875)scale(0.7)"/>
      </g>
     </g>
    </g>
    <g id="ytick_2">
     <g id="line2d_11">
      <g>
       <use xlink:href="#m968bb0ef45" x="50.785" y="309.4" style="stroke: #000000; stroke-width: 0.8"/>
      </g>
     </g>
     <g id="text_8">
      <!-- $\mathdefault{2^{-2}}$ -->
      <g transform="translate(26.685 313.199219)scale(0.1 -0.1)">
       <use xlink:href="#DejaVuSans-32" transform="translate(0 0.765625)"/>
       <use xlink:href="#DejaVuSans-2212" transform="translate(64.580078 39.046875)scale(0.7)"/>
       <use xlink:href="#DejaVuSans-32" transform="translate(123.232422 39.046875)scale(0.7)"/>
      </g>
     </g>
    </g>
    <g id="ytick_3">
     <g id="line2d_12">
      <g>
       <use xlink:href="#m968bb0ef45" x="50.785" y="263.2" style="stroke: #000000; stroke-width: 0.8"/>
      </g>
     </g>
     <g id="text_9">
      <!-- $\mathdefault{2^{-1}}$ -->
      <g transform="translate(26.685 266.999219)scale(0.1 -0.1)">
       <use xlink:href="#DejaVuSans-32" transform="translate(0 0.684375)"/>
       <use xlink:href="#DejaVuSans-2212" transform="translate(64.580078 38.965625)scale(0.7)"/>
       <use xlink:href="#DejaVuSans-31" transform="translate(123.232422 38.965625)scale(0.7)"/>
      </g>
     </g>
    </g>
    <g id="ytick_4">
     <g id="line2d_13">
      <g>
       <use xlink:href="#m968bb0ef45" x="50.785" y="217" style="stroke: #000000; stroke-width: 0.8"/>
      </g>
     </g>
     <g id="text_10">
      <!-- $\mathdefault{2^{0}}$ -->
      <g transform="translate(32.585 220.799219)scale(0.1 -0.1)">
       <use xlink:href="#DejaVuSans-32" transform="translate(0 0.765625)"/>
       <use xlink:href="#DejaVuSans-30" transform="translate(64.580078 39.046875)scale(0.7)"/>
      </g>
     </g>
    </g>
    <g id="ytick_5">
     <g id="line2d_14">
      <g>
       <use xlink:href="#m968bb0ef45" x="50.785" y="170.8" style="stroke: #000000; stroke-width: 0.8"/>
      </g>
     </g>
     <g id="text_11">
      <!-- $\mathdefault{2^{1}}$ -->
      <g transform="translate(32.585 174.599219)scale(0.1 -0.1)">
       <use xlink:href="#DejaVuSans-32" transform="translate(0 0.684375)"/>
       <use xlink:href="#DejaVuSans-31" transform="translate(64.580078 38.965625)scale(0.7)"/>
      </g>
     </g>
    </g>
    <g id="ytick_6">
     <g id="line2d_15">
      <g>
       <use xlink:href="#m968bb0ef45" x="50.785" y="124.6" style="stroke: #000000; stroke-width: 0.8"/>
      </g>
     </g>
     <g id="text_12">
      <!-- $\mathdefault{2^{2}}$ -->
      <g transform="translate(32.585 128.399219)scale(0.1 -0.1)">
       <use xlink:href="#DejaVuSans-32" transform="translate(0 0.765625)"/>
       <use xlink:href="#DejaVuSans-32" transform="translate(64.580078 39.046875)scale(0.7)"/>
      </g>
     </g>
    </g>
    <g id="ytick_7">
     <g id="line2d_16">
      <g>
       <use xlink:href="#m968bb0ef45" x="50.785" y="78.4" style="stroke: #000000; stroke-width: 0.8"/>
      </g>
     </g>
     <g id="text_13">
      <!-- $\mathdefault{2^{3}}$ -->
      <g transform="translate(32.585 82.199219)scale(0.1 -0.1)">
       <use xlink:href="#DejaVuSans-32" transform="translate(0 0.765625)"/>
       <use xlink:href="#DejaVuSans-33" transform="translate(64.580078 39.046875)scale(0.7)"/>
      </g>
     </g>
    </g>
    <g id="text_14">
     <!-- Double precision GFLOPs/s -->
     <g transform="translate(19.3575 323.49875)rotate(-90)scale(0.16 -0.16)">
      <defs>
       <path id="DejaVuSans-44" d="M 1259 4147 
L 1259 519 
L 2022 519 
Q 2988 519 3436 956 
Q 3884 1394 3884 2338 
Q 3884 3275 3436 3711 
Q 2988 4147 2022 4147 
L 1259 4147 
z
M 628 4666 
L 1925 4666 
Q 3281 4666 3915 4102 
Q 4550 3538 4550 2338 
Q 4550 1131 3912 565 
Q 3275 0 1925 0 
L 628 0 
L 628 4666 
z
" transform="scale(0.015625)"/>
       <path id="DejaVuSans-6f" d="M 1959 3097 
Q 1497 3097 1228 2736 
Q 959 2375 959 1747 
Q 959 1119 1226 758 
Q 1494 397 1959 397 
Q 2419 397 2687 759 
Q 2956 1122 2956 1747 
Q 2956 2369 2687 2733 
Q 2419 3097 1959 3097 
z
M 1959 3584 
Q 2709 3584 3137 3096 
Q 3566 2609 3566 1747 
Q 3566 888 3137 398 
Q 2709 -91 1959 -91 
Q 1206 -91 779 398 
Q 353 888 353 1747 
Q 353 2609 779 3096 
Q 1206 3584 1959 3584 
z
" transform="scale(0.015625)"/>
       <path id="DejaVuSans-75" d="M 544 1381 
L 544 3500 
L 1119 3500 
L 1119 1403 
Q 1119 906 1312 657 
Q 1506 409 1894 409 
Q 2359 409 2629 706 
Q 2900 1003 2900 1516 
L 2900 3500 
L 3475 3500 
L 3475 0 
L 2900 0 
L 2900 538 
Q 2691 219 2414 64 
Q 2138 -91 1772 -91 
Q 1169 -91 856 284 
Q 544 659 544 1381 
z
M 1991 3584 
L 1991 3584 
z
" transform="scale(0.015625)"/>
       <path id="DejaVuSans-6c" d="M 603 4863 
L 1178 4863 
L 1178 0 
L 603 0 
L 603 4863 
z
" transform="scale(0.015625)"/>
       <path id="DejaVuSans-70" d="M 1159 525 
L 1159 -1331 
L 581 -1331 
L 581 3500 
L 1159 3500 
L 1159 2969 
Q 1341 3281 1617 3432 
Q 1894 3584 2278 3584 
Q 2916 3584 3314 3078 
Q 3713 2572 3713 1747 
Q 3713 922 3314 415 
Q 2916 -91 2278 -91 
Q 1894 -91 1617 61 
Q 1341 213 1159 525 
z
M 3116 1747 
Q 3116 2381 2855 2742 
Q 2594 3103 2138 3103 
Q 1681 3103 1420 2742 
Q 1159 2381 1159 1747 
Q 1159 1113 1420 752 
Q 1681 391 2138 391 
Q 2594 391 2855 752 
Q 3116 1113 3116 1747 
z
" transform="scale(0.015625)"/>
       <path id="DejaVuSans-47" d="M 3809 666 
L 3809 1919 
L 2778 1919 
L 2778 2438 
L 4434 2438 
L 4434 434 
Q 4069 175 3628 42 
Q 3188 -91 2688 -91 
Q 1594 -91 976 548 
Q 359 1188 359 2328 
Q 359 3472 976 4111 
Q 1594 4750 2688 4750 
Q 3144 4750 3555 4637 
Q 3966 4525 4313 4306 
L 4313 3634 
Q 3963 3931 3569 4081 
Q 3175 4231 2741 4231 
Q 1884 4231 1454 3753 
Q 1025 3275 1025 2328 
Q 1025 1384 1454 906 
Q 1884 428 2741 428 
Q 3075 428 3337 486 
Q 3600 544 3809 666 
z
" transform="scale(0.015625)"/>
      </defs>
      <use xlink:href="#DejaVuSans-44"/>
      <use xlink:href="#DejaVuSans-6f" x="77.001953"/>
      <use xlink:href="#DejaVuSans-75" x="138.183594"/>
      <use xlink:href="#DejaVuSans-62" x="201.5625"/>
      <use xlink:href="#DejaVuSans-6c" x="265.039062"/>
      <use xlink:href="#DejaVuSans-65" x="292.822266"/>
      <use xlink:href="#DejaVuSans-20" x="354.345703"/>
      <use xlink:href="#DejaVuSans-70" x="386.132812"/>
      <use xlink:href="#DejaVuSans-72" x="449.609375"/>
      <use xlink:href="#DejaVuSans-65" x="488.472656"/>
      <use xlink:href="#DejaVuSans-63" x="549.996094"/>
      <use xlink:href="#DejaVuSans-69" x="604.976562"/>
      <use xlink:href="#DejaVuSans-73" x="632.759766"/>
      <use xlink:href="#DejaVuSans-69" x="684.859375"/>
      <use xlink:href="#DejaVuSans-6f" x="712.642578"/>
      <use xlink:href="#DejaVuSans-6e" x="773.824219"/>
      <use xlink:href="#DejaVuSans-20" x="837.203125"/>
      <use xlink:href="#DejaVuSans-47" x="868.990234"/>
      <use xlink:href="#DejaVuSans-46" x="946.480469"/>
      <use xlink:href="#DejaVuSans-4c" x="1004"/>
      <use xlink:href="#DejaVuSans-4f" x="1056.087891"/>
      <use xlink:href="#DejaVuSans-50" x="1134.798828"/>
      <use xlink:href="#DejaVuSans-73" x="1193.351562"/>
      <use xlink:href="#DejaVuSans-2f" x="1245.451172"/>
      <use xlink:href="#DejaVuSans-73" x="1279.142578"/>
     </g>
    </g>
   </g>
   <g id="text_15">
    <g id="patch_2">
     <path d="M 202.364424 165.021207 
L 290.536957 132.929029 
L 284.490682 116.317026 
L 196.318149 148.409203 
z
" style="fill: #ffffff; opacity: 0.5; stroke: #ffffff; stroke-linejoin: miter"/>
    </g>
    <!-- Triad BW 12 GB/s -->
    <g transform="translate(204.043819 157.940089)rotate(-20)scale(0.1 -0.1)">
     <defs>
      <path id="DejaVuSans-54" d="M -19 4666 
L 3928 4666 
L 3928 4134 
L 2272 4134 
L 2272 0 
L 1638 0 
L 1638 4134 
L -19 4134 
L -19 4666 
z
" transform="scale(0.015625)"/>
      <path id="DejaVuSans-61" d="M 2194 1759 
Q 1497 1759 1228 1600 
Q 959 1441 959 1056 
Q 959 750 1161 570 
Q 1363 391 1709 391 
Q 2188 391 2477 730 
Q 2766 1069 2766 1631 
L 2766 1759 
L 2194 1759 
z
M 3341 1997 
L 3341 0 
L 2766 0 
L 2766 531 
Q 2569 213 2275 61 
Q 1981 -91 1556 -91 
Q 1019 -91 701 211 
Q 384 513 384 1019 
Q 384 1609 779 1909 
Q 1175 2209 1959 2209 
L 2766 2209 
L 2766 2266 
Q 2766 2663 2505 2880 
Q 2244 3097 1772 3097 
Q 1472 3097 1187 3025 
Q 903 2953 641 2809 
L 641 3341 
Q 956 3463 1253 3523 
Q 1550 3584 1831 3584 
Q 2591 3584 2966 3190 
Q 3341 2797 3341 1997 
z
" transform="scale(0.015625)"/>
      <path id="DejaVuSans-64" d="M 2906 2969 
L 2906 4863 
L 3481 4863 
L 3481 0 
L 2906 0 
L 2906 525 
Q 2725 213 2448 61 
Q 2172 -91 1784 -91 
Q 1150 -91 751 415 
Q 353 922 353 1747 
Q 353 2572 751 3078 
Q 1150 3584 1784 3584 
Q 2172 3584 2448 3432 
Q 2725 3281 2906 2969 
z
M 947 1747 
Q 947 1113 1208 752 
Q 1469 391 1925 391 
Q 2381 391 2643 752 
Q 2906 1113 2906 1747 
Q 2906 2381 2643 2742 
Q 2381 3103 1925 3103 
Q 1469 3103 1208 2742 
Q 947 2381 947 1747 
z
" transform="scale(0.015625)"/>
      <path id="DejaVuSans-42" d="M 1259 2228 
L 1259 519 
L 2272 519 
Q 2781 519 3026 730 
Q 3272 941 3272 1375 
Q 3272 1813 3026 2020 
Q 2781 2228 2272 2228 
L 1259 2228 
z
M 1259 4147 
L 1259 2741 
L 2194 2741 
Q 2656 2741 2882 2914 
Q 3109 3088 3109 3444 
Q 3109 3797 2882 3972 
Q 2656 4147 2194 4147 
L 1259 4147 
z
M 628 4666 
L 2241 4666 
Q 2963 4666 3353 4366 
Q 3744 4066 3744 3513 
Q 3744 3084 3544 2831 
Q 3344 2578 2956 2516 
Q 3422 2416 3680 2098 
Q 3938 1781 3938 1306 
Q 3938 681 3513 340 
Q 3088 0 2303 0 
L 628 0 
L 628 4666 
z
" transform="scale(0.015625)"/>
      <path id="DejaVuSans-57" d="M 213 4666 
L 850 4666 
L 1831 722 
L 2809 4666 
L 3519 4666 
L 4500 722 
L 5478 4666 
L 6119 4666 
L 4947 0 
L 4153 0 
L 3169 4050 
L 2175 0 
L 1381 0 
L 213 4666 
z
" transform="scale(0.015625)"/>
     </defs>
     <use xlink:href="#DejaVuSans-54"/>
     <use xlink:href="#DejaVuSans-72" x="46.333984"/>
     <use xlink:href="#DejaVuSans-69" x="87.447266"/>
     <use xlink:href="#DejaVuSans-61" x="115.230469"/>
     <use xlink:href="#DejaVuSans-64" x="176.509766"/>
     <use xlink:href="#DejaVuSans-20" x="239.986328"/>
     <use xlink:href="#DejaVuSans-42" x="271.773438"/>
     <use xlink:href="#DejaVuSans-57" x="336.751953"/>
     <use xlink:href="#DejaVuSans-20" x="435.628906"/>
     <use xlink:href="#DejaVuSans-31" x="467.416016"/>
     <use xlink:href="#DejaVuSans-32" x="531.039062"/>
     <use xlink:href="#DejaVuSans-20" x="594.662109"/>
     <use xlink:href="#DejaVuSans-47" x="626.449219"/>
     <use xlink:href="#DejaVuSans-42" x="703.939453"/>
     <use xlink:href="#DejaVuSans-2f" x="772.542969"/>
     <use xlink:href="#DejaVuSans-73" x="806.234375"/>
    </g>
   </g>
   <g id="text_16">
    <g id="patch_3">
     <path d="M 1350.019375 -44.081128 
L 1498.61 -44.081128 
L 1498.61 -61.759253 
L 1350.019375 -61.759253 
z
" style="fill: #ffffff; opacity: 0.5; stroke: #ffffff; stroke-linejoin: miter"/>
    </g>
    <!-- 2 AVX FMA/cycle: 46 Gflop/s -->
    <g transform="translate(1354.019375 -50.160816)scale(0.1 -0.1)">
     <defs>
      <path id="DejaVuSans-56" d="M 1831 0 
L 50 4666 
L 709 4666 
L 2188 738 
L 3669 4666 
L 4325 4666 
L 2547 0 
L 1831 0 
z
" transform="scale(0.015625)"/>
      <path id="DejaVuSans-58" d="M 403 4666 
L 1081 4666 
L 2241 2931 
L 3406 4666 
L 4084 4666 
L 2584 2425 
L 4184 0 
L 3506 0 
L 2194 1984 
L 872 0 
L 191 0 
L 1856 2491 
L 403 4666 
z
" transform="scale(0.015625)"/>
      <path id="DejaVuSans-4d" d="M 628 4666 
L 1569 4666 
L 2759 1491 
L 3956 4666 
L 4897 4666 
L 4897 0 
L 4281 0 
L 4281 4097 
L 3078 897 
L 2444 897 
L 1241 4097 
L 1241 0 
L 628 0 
L 628 4666 
z
" transform="scale(0.015625)"/>
      <path id="DejaVuSans-3a" d="M 750 794 
L 1409 794 
L 1409 0 
L 750 0 
L 750 794 
z
M 750 3309 
L 1409 3309 
L 1409 2516 
L 750 2516 
L 750 3309 
z
" transform="scale(0.015625)"/>
      <path id="DejaVuSans-36" d="M 2113 2584 
Q 1688 2584 1439 2293 
Q 1191 2003 1191 1497 
Q 1191 994 1439 701 
Q 1688 409 2113 409 
Q 2538 409 2786 701 
Q 3034 994 3034 1497 
Q 3034 2003 2786 2293 
Q 2538 2584 2113 2584 
z
M 3366 4563 
L 3366 3988 
Q 3128 4100 2886 4159 
Q 2644 4219 2406 4219 
Q 1781 4219 1451 3797 
Q 1122 3375 1075 2522 
Q 1259 2794 1537 2939 
Q 1816 3084 2150 3084 
Q 2853 3084 3261 2657 
Q 3669 2231 3669 1497 
Q 3669 778 3244 343 
Q 2819 -91 2113 -91 
Q 1303 -91 875 529 
Q 447 1150 447 2328 
Q 447 3434 972 4092 
Q 1497 4750 2381 4750 
Q 2619 4750 2861 4703 
Q 3103 4656 3366 4563 
z
" transform="scale(0.015625)"/>
      <path id="DejaVuSans-66" d="M 2375 4863 
L 2375 4384 
L 1825 4384 
Q 1516 4384 1395 4259 
Q 1275 4134 1275 3809 
L 1275 3500 
L 2222 3500 
L 2222 3053 
L 1275 3053 
L 1275 0 
L 697 0 
L 697 3053 
L 147 3053 
L 147 3500 
L 697 3500 
L 697 3744 
Q 697 4328 969 4595 
Q 1241 4863 1831 4863 
L 2375 4863 
z
" transform="scale(0.015625)"/>
     </defs>
     <use xlink:href="#DejaVuSans-32"/>
     <use xlink:href="#DejaVuSans-20" x="63.623047"/>
     <use xlink:href="#DejaVuSans-41" x="95.410156"/>
     <use xlink:href="#DejaVuSans-56" x="157.443359"/>
     <use xlink:href="#DejaVuSans-58" x="225.851562"/>
     <use xlink:href="#DejaVuSans-20" x="294.357422"/>
     <use xlink:href="#DejaVuSans-46" x="326.144531"/>
     <use xlink:href="#DejaVuSans-4d" x="383.664062"/>
     <use xlink:href="#DejaVuSans-41" x="469.943359"/>
     <use xlink:href="#DejaVuSans-2f" x="538.351562"/>
     <use xlink:href="#DejaVuSans-63" x="572.042969"/>
     <use xlink:href="#DejaVuSans-79" x="627.023438"/>
     <use xlink:href="#DejaVuSans-63" x="686.203125"/>
     <use xlink:href="#DejaVuSans-6c" x="741.183594"/>
     <use xlink:href="#DejaVuSans-65" x="768.966797"/>
     <use xlink:href="#DejaVuSans-3a" x="830.490234"/>
     <use xlink:href="#DejaVuSans-20" x="864.181641"/>
     <use xlink:href="#DejaVuSans-34" x="895.96875"/>
     <use xlink:href="#DejaVuSans-36" x="959.591797"/>
     <use xlink:href="#DejaVuSans-20" x="1023.214844"/>
     <use xlink:href="#DejaVuSans-47" x="1055.001953"/>
     <use xlink:href="#DejaVuSans-66" x="1132.492188"/>
     <use xlink:href="#DejaVuSans-6c" x="1167.697266"/>
     <use xlink:href="#DejaVuSans-6f" x="1195.480469"/>
     <use xlink:href="#DejaVuSans-70" x="1256.662109"/>
     <use xlink:href="#DejaVuSans-2f" x="1320.138672"/>
     <use xlink:href="#DejaVuSans-73" x="1353.830078"/>
    </g>
   </g>
   <g id="text_17">
    <g id="patch_4">
     <path d="M 1353.388125 2.118872 
L 1498.61 2.118872 
L 1498.61 -15.559253 
L 1353.388125 -15.559253 
z
" style="fill: #ffffff; opacity: 0.5; stroke: #ffffff; stroke-linejoin: miter"/>
    </g>
    <!-- 1 AVX FMA/cycle 23 Gflop/s -->
    <g transform="translate(1357.388125 -3.960816)scale(0.1 -0.1)">
     <use xlink:href="#DejaVuSans-31"/>
     <use xlink:href="#DejaVuSans-20" x="63.623047"/>
     <use xlink:href="#DejaVuSans-41" x="95.410156"/>
     <use xlink:href="#DejaVuSans-56" x="157.443359"/>
     <use xlink:href="#DejaVuSans-58" x="225.851562"/>
     <use xlink:href="#DejaVuSans-20" x="294.357422"/>
     <use xlink:href="#DejaVuSans-46" x="326.144531"/>
     <use xlink:href="#DejaVuSans-4d" x="383.664062"/>
     <use xlink:href="#DejaVuSans-41" x="469.943359"/>
     <use xlink:href="#DejaVuSans-2f" x="538.351562"/>
     <use xlink:href="#DejaVuSans-63" x="572.042969"/>
     <use xlink:href="#DejaVuSans-79" x="627.023438"/>
     <use xlink:href="#DejaVuSans-63" x="686.203125"/>
     <use xlink:href="#DejaVuSans-6c" x="741.183594"/>
     <use xlink:href="#DejaVuSans-65" x="768.966797"/>
     <use xlink:href="#DejaVuSans-20" x="830.490234"/>
     <use xlink:href="#DejaVuSans-32" x="862.277344"/>
     <use xlink:href="#DejaVuSans-33" x="925.900391"/>
     <use xlink:href="#DejaVuSans-20" x="989.523438"/>
     <use xlink:href="#DejaVuSans-47" x="1021.310547"/>
     <use xlink:href="#DejaVuSans-66" x="1098.800781"/>
     <use xlink:href="#DejaVuSans-6c" x="1134.005859"/>
     <use xlink:href="#DejaVuSans-6f" x="1161.789062"/>
     <use xlink:href="#DejaVuSans-70" x="1222.970703"/>
     <use xlink:href="#DejaVuSans-2f" x="1286.447266"/>
     <use xlink:href="#DejaVuSans-73" x="1320.138672"/>
    </g>
   </g>
   <g id="text_18">
    <g id="patch_5">
     <path d="M 1281.650625 48.318872 
L 1498.61 48.318872 
L 1498.61 30.640747 
L 1281.650625 30.640747 
z
" style="fill: #ffffff; opacity: 0.5; stroke: #ffffff; stroke-linejoin: miter"/>
    </g>
    <!-- 1 AVX MUL or 1 AVX ADD/cycle 12 Gflop/s -->
    <g transform="translate(1285.650625 42.239184)scale(0.1 -0.1)">
     <defs>
      <path id="DejaVuSans-55" d="M 556 4666 
L 1191 4666 
L 1191 1831 
Q 1191 1081 1462 751 
Q 1734 422 2344 422 
Q 2950 422 3222 751 
Q 3494 1081 3494 1831 
L 3494 4666 
L 4128 4666 
L 4128 1753 
Q 4128 841 3676 375 
Q 3225 -91 2344 -91 
Q 1459 -91 1007 375 
Q 556 841 556 1753 
L 556 4666 
z
" transform="scale(0.015625)"/>
     </defs>
     <use xlink:href="#DejaVuSans-31"/>
     <use xlink:href="#DejaVuSans-20" x="63.623047"/>
     <use xlink:href="#DejaVuSans-41" x="95.410156"/>
     <use xlink:href="#DejaVuSans-56" x="157.443359"/>
     <use xlink:href="#DejaVuSans-58" x="225.851562"/>
     <use xlink:href="#DejaVuSans-20" x="294.357422"/>
     <use xlink:href="#DejaVuSans-4d" x="326.144531"/>
     <use xlink:href="#DejaVuSans-55" x="412.423828"/>
     <use xlink:href="#DejaVuSans-4c" x="485.617188"/>
     <use xlink:href="#DejaVuSans-20" x="541.330078"/>
     <use xlink:href="#DejaVuSans-6f" x="573.117188"/>
     <use xlink:href="#DejaVuSans-72" x="634.298828"/>
     <use xlink:href="#DejaVuSans-20" x="675.412109"/>
     <use xlink:href="#DejaVuSans-31" x="707.199219"/>
     <use xlink:href="#DejaVuSans-20" x="770.822266"/>
     <use xlink:href="#DejaVuSans-41" x="802.609375"/>
     <use xlink:href="#DejaVuSans-56" x="864.642578"/>
     <use xlink:href="#DejaVuSans-58" x="933.050781"/>
     <use xlink:href="#DejaVuSans-20" x="1001.556641"/>
     <use xlink:href="#DejaVuSans-41" x="1033.34375"/>
     <use xlink:href="#DejaVuSans-44" x="1101.751953"/>
     <use xlink:href="#DejaVuSans-44" x="1178.753906"/>
     <use xlink:href="#DejaVuSans-2f" x="1255.755859"/>
     <use xlink:href="#DejaVuSans-63" x="1289.447266"/>
     <use xlink:href="#DejaVuSans-79" x="1344.427734"/>
     <use xlink:href="#DejaVuSans-63" x="1403.607422"/>
     <use xlink:href="#DejaVuSans-6c" x="1458.587891"/>
     <use xlink:href="#DejaVuSans-65" x="1486.371094"/>
     <use xlink:href="#DejaVuSans-20" x="1547.894531"/>
     <use xlink:href="#DejaVuSans-31" x="1579.681641"/>
     <use xlink:href="#DejaVuSans-32" x="1643.304688"/>
     <use xlink:href="#DejaVuSans-20" x="1706.927734"/>
     <use xlink:href="#DejaVuSans-47" x="1738.714844"/>
     <use xlink:href="#DejaVuSans-66" x="1816.205078"/>
     <use xlink:href="#DejaVuSans-6c" x="1851.410156"/>
     <use xlink:href="#DejaVuSans-6f" x="1879.193359"/>
     <use xlink:href="#DejaVuSans-70" x="1940.375"/>
     <use xlink:href="#DejaVuSans-2f" x="2003.851562"/>
     <use xlink:href="#DejaVuSans-73" x="2037.542969"/>
    </g>
   </g>
   <g id="text_19">
    <g id="patch_6">
     <path d="M 416.919375 140.718872 
L 556.985 140.718872 
L 556.985 123.040747 
L 416.919375 123.040747 
z
" style="fill: #ffffff; opacity: 0.5; stroke: #ffffff; stroke-linejoin: miter"/>
    </g>
    <!-- 1 scalar op/cycle 3 Gflop/s -->
    <g transform="translate(420.919375 134.639184)scale(0.1 -0.1)">
     <use xlink:href="#DejaVuSans-31"/>
     <use xlink:href="#DejaVuSans-20" x="63.623047"/>
     <use xlink:href="#DejaVuSans-73" x="95.410156"/>
     <use xlink:href="#DejaVuSans-63" x="147.509766"/>
     <use xlink:href="#DejaVuSans-61" x="202.490234"/>
     <use xlink:href="#DejaVuSans-6c" x="263.769531"/>
     <use xlink:href="#DejaVuSans-61" x="291.552734"/>
     <use xlink:href="#DejaVuSans-72" x="352.832031"/>
     <use xlink:href="#DejaVuSans-20" x="393.945312"/>
     <use xlink:href="#DejaVuSans-6f" x="425.732422"/>
     <use xlink:href="#DejaVuSans-70" x="486.914062"/>
     <use xlink:href="#DejaVuSans-2f" x="550.390625"/>
     <use xlink:href="#DejaVuSans-63" x="584.082031"/>
     <use xlink:href="#DejaVuSans-79" x="639.0625"/>
     <use xlink:href="#DejaVuSans-63" x="698.242188"/>
     <use xlink:href="#DejaVuSans-6c" x="753.222656"/>
     <use xlink:href="#DejaVuSans-65" x="781.005859"/>
     <use xlink:href="#DejaVuSans-20" x="842.529297"/>
     <use xlink:href="#DejaVuSans-33" x="874.316406"/>
     <use xlink:href="#DejaVuSans-20" x="937.939453"/>
     <use xlink:href="#DejaVuSans-47" x="969.726562"/>
     <use xlink:href="#DejaVuSans-66" x="1047.216797"/>
     <use xlink:href="#DejaVuSans-6c" x="1082.421875"/>
     <use xlink:href="#DejaVuSans-6f" x="1110.205078"/>
     <use xlink:href="#DejaVuSans-70" x="1171.386719"/>
     <use xlink:href="#DejaVuSans-2f" x="1234.863281"/>
     <use xlink:href="#DejaVuSans-73" x="1268.554688"/>
    </g>
   </g>
   <g id="line2d_17">
    <defs>
     <path id="m3892f20df0" d="M 0 6 
C 1.591219 6 3.117479 5.367802 4.242641 4.242641 
C 5.367802 3.117479 6 1.591219 6 0 
C 6 -1.591219 5.367802 -3.117479 4.242641 -4.242641 
C 3.117479 -5.367802 1.591219 -6 0 -6 
C -1.591219 -6 -3.117479 -5.367802 -4.242641 -4.242641 
C -5.367802 -3.117479 -6 -1.591219 -6 0 
C -6 1.591219 -5.367802 3.117479 -4.242641 4.242641 
C -3.117479 5.367802 -1.591219 6 0 6 
z
" style="stroke: #1f77b4"/>
    </defs>
    <g clip-path="url(#p62f467a784)">
     <use xlink:href="#m3892f20df0" x="301.505025" y="252.480577" style="fill: #1f77b4; stroke: #1f77b4"/>
     <use xlink:href="#m3892f20df0" x="301.722056" y="252.505552" style="fill: #1f77b4; stroke: #1f77b4"/>
     <use xlink:href="#m3892f20df0" x="301.794457" y="253.498472" style="fill: #1f77b4; stroke: #1f77b4"/>
     <use xlink:href="#m3892f20df0" x="301.830669" y="253.739776" style="fill: #1f77b4; stroke: #1f77b4"/>
     <use xlink:href="#m3892f20df0" x="301.852399" y="252.896149" style="fill: #1f77b4; stroke: #1f77b4"/>
     <use xlink:href="#m3892f20df0" x="301.859644" y="252.505552" style="fill: #1f77b4; stroke: #1f77b4"/>
     <use xlink:href="#m3892f20df0" x="301.863266" y="252.735306" style="fill: #1f77b4; stroke: #1f77b4"/>
    </g>
   </g>
   <g id="line2d_18">
    <defs>
     <path id="mc96e0280c2" d="M 6 0 
L -6 -6 
L -6 6 
z
" style="stroke: #ff7f0e; stroke-linejoin: miter"/>
    </defs>
    <g clip-path="url(#p62f467a784)">
     <use xlink:href="#mc96e0280c2" x="301.505025" y="138.727424" style="fill: #ff7f0e; stroke: #ff7f0e; stroke-linejoin: miter"/>
     <use xlink:href="#mc96e0280c2" x="301.722056" y="147.710066" style="fill: #ff7f0e; stroke: #ff7f0e; stroke-linejoin: miter"/>
     <use xlink:href="#mc96e0280c2" x="301.794457" y="148.278131" style="fill: #ff7f0e; stroke: #ff7f0e; stroke-linejoin: miter"/>
     <use xlink:href="#mc96e0280c2" x="301.830669" y="148.017167" style="fill: #ff7f0e; stroke: #ff7f0e; stroke-linejoin: miter"/>
     <use xlink:href="#mc96e0280c2" x="301.852399" y="172.010674" style="fill: #ff7f0e; stroke: #ff7f0e; stroke-linejoin: miter"/>
     <use xlink:href="#mc96e0280c2" x="301.859644" y="172.521685" style="fill: #ff7f0e; stroke: #ff7f0e; stroke-linejoin: miter"/>
     <use xlink:href="#mc96e0280c2" x="301.863266" y="172.521685" style="fill: #ff7f0e; stroke: #ff7f0e; stroke-linejoin: miter"/>
    </g>
   </g>
   <g id="line2d_19">
    <defs>
     <path id="m3779bb4a1b" d="M 6 0 
L -6 -6 
L -6 6 
z
" style="stroke: #2ca02c; stroke-linejoin: miter"/>
    </defs>
    <g clip-path="url(#p62f467a784)">
     <use xlink:href="#m3779bb4a1b" x="301.505025" y="140.374793" style="fill: #2ca02c; stroke: #2ca02c; stroke-linejoin: miter"/>
     <use xlink:href="#m3779bb4a1b" x="301.722056" y="147.240349" style="fill: #2ca02c; stroke: #2ca02c; stroke-linejoin: miter"/>
     <use xlink:href="#m3779bb4a1b" x="301.794457" y="145.827824" style="fill: #2ca02c; stroke: #2ca02c; stroke-linejoin: miter"/>
     <use xlink:href="#m3779bb4a1b" x="301.830669" y="148.183116" style="fill: #2ca02c; stroke: #2ca02c; stroke-linejoin: miter"/>
     <use xlink:href="#m3779bb4a1b" x="301.852399" y="148.183116" style="fill: #2ca02c; stroke: #2ca02c; stroke-linejoin: miter"/>
     <use xlink:href="#m3779bb4a1b" x="301.859644" y="147.474794" style="fill: #2ca02c; stroke: #2ca02c; stroke-linejoin: miter"/>
     <use xlink:href="#m3779bb4a1b" x="301.863266" y="146.727456" style="fill: #2ca02c; stroke: #2ca02c; stroke-linejoin: miter"/>
    </g>
   </g>
   <g id="patch_7">
    <path d="M 50.785 355.6 
L 50.785 78.4 
" style="fill: none; stroke: #000000; stroke-width: 0.8; stroke-linejoin: miter; stroke-linecap: square"/>
   </g>
   <g id="patch_8">
    <path d="M 552.985 355.6 
L 552.985 78.4 
" style="fill: none; stroke: #000000; stroke-width: 0.8; stroke-linejoin: miter; stroke-linecap: square"/>
   </g>
   <g id="patch_9">
    <path d="M 50.785 355.6 
L 552.985 355.6 
" style="fill: none; stroke: #000000; stroke-width: 0.8; stroke-linejoin: miter; stroke-linecap: square"/>
   </g>
   <g id="patch_10">
    <path d="M 50.785 78.4 
L 552.985 78.4 
" style="fill: none; stroke: #000000; stroke-width: 0.8; stroke-linejoin: miter; stroke-linecap: square"/>
   </g>
   <g id="text_20">
    <!-- Hamilton node single-core roofline -->
    <g transform="translate(163.98625 72.4)scale(0.16 -0.16)">
     <defs>
      <path id="DejaVuSans-48" d="M 628 4666 
L 1259 4666 
L 1259 2753 
L 3553 2753 
L 3553 4666 
L 4184 4666 
L 4184 0 
L 3553 0 
L 3553 2222 
L 1259 2222 
L 1259 0 
L 628 0 
L 628 4666 
z
" transform="scale(0.015625)"/>
      <path id="DejaVuSans-67" d="M 2906 1791 
Q 2906 2416 2648 2759 
Q 2391 3103 1925 3103 
Q 1463 3103 1205 2759 
Q 947 2416 947 1791 
Q 947 1169 1205 825 
Q 1463 481 1925 481 
Q 2391 481 2648 825 
Q 2906 1169 2906 1791 
z
M 3481 434 
Q 3481 -459 3084 -895 
Q 2688 -1331 1869 -1331 
Q 1566 -1331 1297 -1286 
Q 1028 -1241 775 -1147 
L 775 -588 
Q 1028 -725 1275 -790 
Q 1522 -856 1778 -856 
Q 2344 -856 2625 -561 
Q 2906 -266 2906 331 
L 2906 616 
Q 2728 306 2450 153 
Q 2172 0 1784 0 
Q 1141 0 747 490 
Q 353 981 353 1791 
Q 353 2603 747 3093 
Q 1141 3584 1784 3584 
Q 2172 3584 2450 3431 
Q 2728 3278 2906 2969 
L 2906 3500 
L 3481 3500 
L 3481 434 
z
" transform="scale(0.015625)"/>
      <path id="DejaVuSans-2d" d="M 313 2009 
L 1997 2009 
L 1997 1497 
L 313 1497 
L 313 2009 
z
" transform="scale(0.015625)"/>
     </defs>
     <use xlink:href="#DejaVuSans-48"/>
     <use xlink:href="#DejaVuSans-61" x="75.195312"/>
     <use xlink:href="#DejaVuSans-6d" x="136.474609"/>
     <use xlink:href="#DejaVuSans-69" x="233.886719"/>
     <use xlink:href="#DejaVuSans-6c" x="261.669922"/>
     <use xlink:href="#DejaVuSans-74" x="289.453125"/>
     <use xlink:href="#DejaVuSans-6f" x="328.662109"/>
     <use xlink:href="#DejaVuSans-6e" x="389.84375"/>
     <use xlink:href="#DejaVuSans-20" x="453.222656"/>
     <use xlink:href="#DejaVuSans-6e" x="485.009766"/>
     <use xlink:href="#DejaVuSans-6f" x="548.388672"/>
     <use xlink:href="#DejaVuSans-64" x="609.570312"/>
     <use xlink:href="#DejaVuSans-65" x="673.046875"/>
     <use xlink:href="#DejaVuSans-20" x="734.570312"/>
     <use xlink:href="#DejaVuSans-73" x="766.357422"/>
     <use xlink:href="#DejaVuSans-69" x="818.457031"/>
     <use xlink:href="#DejaVuSans-6e" x="846.240234"/>
     <use xlink:href="#DejaVuSans-67" x="909.619141"/>
     <use xlink:href="#DejaVuSans-6c" x="973.095703"/>
     <use xlink:href="#DejaVuSans-65" x="1000.878906"/>
     <use xlink:href="#DejaVuSans-2d" x="1062.402344"/>
     <use xlink:href="#DejaVuSans-63" x="1098.486328"/>
     <use xlink:href="#DejaVuSans-6f" x="1153.466797"/>
     <use xlink:href="#DejaVuSans-72" x="1214.648438"/>
     <use xlink:href="#DejaVuSans-65" x="1253.511719"/>
     <use xlink:href="#DejaVuSans-20" x="1315.035156"/>
     <use xlink:href="#DejaVuSans-72" x="1346.822266"/>
     <use xlink:href="#DejaVuSans-6f" x="1385.685547"/>
     <use xlink:href="#DejaVuSans-6f" x="1446.867188"/>
     <use xlink:href="#DejaVuSans-66" x="1508.048828"/>
     <use xlink:href="#DejaVuSans-6c" x="1543.253906"/>
     <use xlink:href="#DejaVuSans-69" x="1571.037109"/>
     <use xlink:href="#DejaVuSans-6e" x="1598.820312"/>
     <use xlink:href="#DejaVuSans-65" x="1662.199219"/>
    </g>
   </g>
  </g>
  <g id="legend_1">
   <g id="line2d_20">
    <g>
     <use xlink:href="#m3892f20df0" x="176.72875" y="20.1575" style="fill: #1f77b4; stroke: #1f77b4"/>
    </g>
   </g>
   <g id="text_21">
    <!-- O0 -->
    <g transform="translate(221.52875 25.7575)scale(0.16 -0.16)">
     <use xlink:href="#DejaVuSans-4f"/>
     <use xlink:href="#DejaVuSans-30" x="78.710938"/>
    </g>
   </g>
   <g id="line2d_21">
    <g>
     <use xlink:href="#mc96e0280c2" x="176.72875" y="43.6425" style="fill: #ff7f0e; stroke: #ff7f0e; stroke-linejoin: miter"/>
    </g>
   </g>
   <g id="text_22">
    <!-- O3 -->
    <g transform="translate(221.52875 49.2425)scale(0.16 -0.16)">
     <use xlink:href="#DejaVuSans-4f"/>
     <use xlink:href="#DejaVuSans-33" x="78.710938"/>
    </g>
   </g>
   <g id="line2d_22">
    <g>
     <use xlink:href="#m3779bb4a1b" x="308.30375" y="20.1575" style="fill: #2ca02c; stroke: #2ca02c; stroke-linejoin: miter"/>
    </g>
   </g>
   <g id="text_23">
    <!-- O3 blocked -->
    <g transform="translate(353.10375 25.7575)scale(0.16 -0.16)">
     <defs>
      <path id="DejaVuSans-6b" d="M 581 4863 
L 1159 4863 
L 1159 1991 
L 2875 3500 
L 3609 3500 
L 1753 1863 
L 3688 0 
L 2938 0 
L 1159 1709 
L 1159 0 
L 581 0 
L 581 4863 
z
" transform="scale(0.015625)"/>
     </defs>
     <use xlink:href="#DejaVuSans-4f"/>
     <use xlink:href="#DejaVuSans-33" x="78.710938"/>
     <use xlink:href="#DejaVuSans-20" x="142.333984"/>
     <use xlink:href="#DejaVuSans-62" x="174.121094"/>
     <use xlink:href="#DejaVuSans-6c" x="237.597656"/>
     <use xlink:href="#DejaVuSans-6f" x="265.380859"/>
     <use xlink:href="#DejaVuSans-63" x="326.5625"/>
     <use xlink:href="#DejaVuSans-6b" x="381.542969"/>
     <use xlink:href="#DejaVuSans-65" x="435.828125"/>
     <use xlink:href="#DejaVuSans-64" x="497.351562"/>
    </g>
   </g>
  </g>
 </g>
 <defs>
  <clipPath id="p62f467a784">
   <rect x="50.785" y="78.4" width="502.2" height="277.2"/>
  </clipPath>
 </defs>
</svg>
